<?xml version="1.0" standalone="no"?>
<!DOCTYPE svg PUBLIC "-//W3C//DTD SVG 20010904//EN"
 "http://www.w3.org/TR/2001/REC-SVG-20010904/DTD/svg10.dtd">
<svg version="1.0" xmlns="http://www.w3.org/2000/svg"
 width="260.000000pt" height="260.000000pt" viewBox="0 0 260.000000 260.000000"
 preserveAspectRatio="xMidYMid meet">
<metadata>
Created by potrace 1.14, written by Peter Selinger 2001-2017
</metadata>
<g transform="translate(0.000000,260.000000) scale(0.100000,-0.100000)"
fill="#000000" stroke="none">
<path d="M0 1300 l0 -1300 1300 0 1300 0 0 1300 0 1300 -1300 0 -1300 0 0
-1300z m1743 1078 c53 -16 102 -64 116 -113 6 -22 11 -118 11 -217 0 -205 -15
-184 135 -193 55 -4 108 -9 117 -11 11 -3 28 12 55 50 23 33 46 55 57 56 22 0
24 38 -24 -380 -17 -146 -33 -275 -35 -287 -5 -22 -3 -23 65 -23 42 0 82 -6
98 -14 57 -29 57 -30 57 -505 0 -418 -1 -437 -20 -469 -11 -19 -37 -42 -57
-53 -36 -18 -73 -19 -1020 -19 -916 0 -985 1 -1017 18 -19 9 -44 30 -55 45
-20 28 -21 41 -24 482 l-3 453 27 31 c21 25 33 31 65 31 l39 0 0 328 c0 320 1
329 23 372 16 33 34 51 67 68 45 23 47 23 406 20 l361 -3 37 -29 c65 -49 66
-57 66 -426 l0 -330 140 0 c134 0 140 1 140 20 0 12 -21 165 -46 342 -34 239
-43 323 -34 332 8 8 25 -5 65 -50 l53 -60 89 8 c48 4 103 10 121 13 l32 6 0
169 0 170 -67 0 c-54 0 -71 4 -89 21 l-22 21 -11 -21 c-10 -19 -21 -21 -92
-21 -92 0 -101 8 -71 67 49 94 141 132 245 101z"/>
<path d="M1605 2356 c-37 -17 -80 -62 -94 -98 l-11 -28 70 0 c59 0 71 3 80 20
6 11 17 20 24 20 7 0 21 -9 31 -20 14 -16 31 -20 77 -20 55 0 58 1 58 24 0 14
-14 40 -33 59 -49 52 -138 71 -202 43z"/>
<path d="M446 2020 c-15 -5 -37 -17 -48 -27 -45 -40 -48 -64 -48 -408 l0 -325
460 0 460 0 0 333 c0 311 -1 334 -20 364 -41 69 -36 68 -425 70 -192 1 -363
-2 -379 -7z m301 -177 c51 -24 76 -73 81 -163 4 -62 1 -85 -16 -123 -24 -55
-81 -96 -138 -100 l-39 -2 -3 195 c-1 107 0 201 3 208 6 17 61 9 112 -15z
m371 -110 c79 -59 38 -158 -71 -170 -113 -13 -193 71 -141 146 37 53 155 66
212 24z"/>
<path d="M656 1843 c-11 -11 -7 -361 4 -368 17 -10 102 37 124 68 16 21 22 48
24 106 6 117 -29 173 -119 194 -14 4 -29 4 -33 0z"/>
<path d="M958 1724 c-83 -44 -52 -132 50 -142 114 -10 176 85 89 138 -38 23
-101 25 -139 4z"/>
<path d="M1506 1895 c3 -22 24 -173 47 -335 l42 -295 60 0 59 0 -3 55 c-2 30
-13 156 -24 280 l-22 225 -34 0 c-28 0 -41 9 -82 55 l-49 55 6 -40z"/>
<path d="M2185 1870 c-37 -50 -39 -51 -76 -45 -22 4 -39 3 -39 -3 0 -22 -40
-491 -45 -525 l-5 -38 67 3 68 3 12 110 c7 61 23 207 37 325 14 118 24 216 22
218 -2 1 -20 -20 -41 -48z"/>
<path d="M1756 1839 c-32 -5 -61 -11 -64 -14 -5 -5 35 -502 44 -542 4 -21 10
-23 59 -23 l55 0 -2 292 c-3 252 -5 293 -18 294 -8 1 -42 -2 -74 -7z"/>
<path d="M1870 1555 l0 -295 65 0 c77 0 68 -27 90 250 9 113 19 231 22 262 l6
56 -44 6 c-24 3 -65 7 -91 10 l-48 6 0 -295z"/>
<path d="M246 1208 c-24 -33 -24 -874 -1 -918 33 -64 -24 -61 1065 -58 l990 3
32 33 33 32 3 434 3 434 -26 31 -27 31 -1028 0 -1029 0 -15 -22z m1964 -404
c0 -194 -3 -293 -10 -289 -6 4 -10 111 -10 289 0 249 3 296 17 296 2 0 3 -133
3 -296z m-1810 1 c0 -183 -4 -285 -10 -285 -6 0 -10 102 -10 285 0 183 4 285
10 285 6 0 10 -102 10 -285z m1005 246 c71 -33 105 -86 105 -164 0 -57 -27
-105 -85 -149 -54 -41 -71 -66 -80 -120 -6 -36 -8 -38 -46 -38 l-39 0 0 45 c0
62 30 118 84 155 58 39 76 66 76 111 0 51 -8 67 -41 84 -62 33 -153 0 -161
-58 -3 -19 -10 -22 -52 -25 l-48 -3 6 28 c16 64 41 98 96 126 64 32 126 35
185 8z m-67 -547 c30 -21 30 -77 0 -98 -30 -21 -54 -20 -78 4 -28 28 -25 64 6
89 32 25 43 26 72 5z"/>
</g>
</svg>
